<svg xmlns="http://www.w3.org/2000/svg" xmlns:xlink="http://www.w3.org/1999/xlink" width="1375" zoomAndPan="magnify" viewBox="65 455 1375 465" height="465" preserveAspectRatio="xMidYMid meet" version="1.0"><path fill="#ffffff" d="M 204.074219 478.382812 C 180.972656 480.558594 160.667969 486.359375 141.816406 496.097656 C 113.019531 511.015625 94.0625 533.289062 86.394531 561.257812 C 83.910156 570.371094 83.910156 588.5 86.394531 596.996094 C 90.746094 611.808594 100.070312 623.101562 111.671875 627.660156 C 120.269531 631.078125 134.046875 631.078125 141.710938 627.660156 C 149.066406 624.34375 152.277344 620.40625 152.277344 614.605469 C 152.277344 610.667969 151.65625 609.324219 147.308594 604.351562 C 144.507812 601.242188 141.710938 596.789062 141.089844 594.613281 C 133.839844 570.269531 148.238281 539.503906 175.484375 521.476562 C 195.996094 507.90625 220.027344 502.003906 240.226562 505.730469 C 268.714844 510.910156 283.632812 531.421875 285.808594 568.09375 C 288.191406 611.394531 276.691406 644.128906 255.25 654.59375 C 249.65625 657.390625 246.859375 658.011719 239.917969 658.425781 C 231.941406 658.839844 231.214844 658.734375 228.316406 656.25 L 225.3125 653.660156 L 225.414062 609.738281 C 225.414062 574 225.726562 563.847656 227.175781 554.9375 C 229.765625 538.363281 229.558594 534.839844 225.726562 531.007812 C 222.722656 528.003906 222.308594 527.902344 216.296875 528.523438 C 203.347656 529.867188 173.824219 544.269531 170.40625 550.898438 C 168.128906 555.351562 168.542969 558.5625 172.480469 566.746094 C 178.175781 578.453125 178.488281 583.21875 177.867188 654.28125 C 177.347656 720.683594 176.621094 731.351562 171.960938 748.34375 C 169.476562 757.5625 166.265625 764.296875 159.425781 774.34375 C 156.734375 778.382812 154.144531 782.839844 153.730469 784.289062 C 152.796875 788.433594 155.074219 794.128906 158.496094 795.890625 C 162.949219 798.167969 167.195312 797.859375 185.738281 793.714844 C 235.253906 782.734375 254.210938 782.527344 296.269531 792.265625 C 317.714844 797.238281 324.03125 798.066406 328.796875 796.410156 C 332.839844 795.0625 334.597656 792.78125 334.597656 788.847656 C 334.597656 785.429688 332.007812 783.460938 324.757812 781.386719 C 321.339844 780.351562 310.667969 776.105469 300.933594 771.859375 C 271.203125 758.804688 262.605469 755.800781 247.6875 753.316406 C 242.300781 752.484375 237.222656 751.347656 236.292969 750.828125 C 230.386719 747.722656 227.589844 740.054688 225.828125 722.960938 C 224.273438 707.320312 224.480469 684.011719 226.140625 682.664062 C 227.070312 681.835938 229.765625 681.835938 235.152344 682.664062 C 245.199219 684.011719 258.5625 682.976562 270.996094 679.867188 C 315.019531 668.679688 342.886719 629.210938 343.300781 577.3125 C 343.40625 560.84375 341.230469 550.070312 335.117188 536.707031 C 323.824219 512.257812 299.792969 492.886719 269.542969 484.082031 C 250.792969 478.589844 225.3125 476.414062 204.074219 478.382812 Z M 204.074219 478.382812 " fill-opacity="1" fill-rule="nonzero"/><path fill="#ffffff" d="M 1239.46875 529.558594 C 1224.863281 533.703125 1211.808594 538.882812 1208.703125 541.78125 C 1204.144531 546.027344 1204.660156 551.105469 1210.359375 558.5625 C 1213.464844 562.5 1215.226562 565.917969 1215.640625 568.820312 C 1215.953125 571.203125 1216.160156 608.597656 1215.953125 651.898438 C 1215.539062 738.292969 1215.847656 733.941406 1209.21875 746.996094 C 1204.867188 755.699219 1206.007812 762.636719 1212.328125 766.054688 C 1215.125 767.609375 1219.164062 767.921875 1240.089844 768.230469 C 1263.085938 768.542969 1264.847656 768.4375 1268.679688 766.472656 C 1276.65625 762.429688 1277.175781 754.144531 1270.234375 746.167969 C 1267.957031 743.578125 1265.574219 739.539062 1264.847656 737.050781 C 1262.984375 730.9375 1262.15625 603.316406 1263.8125 564.261719 C 1264.539062 545.199219 1264.539062 534.839844 1263.914062 532.976562 C 1261.53125 526.863281 1253.246094 525.621094 1239.46875 529.558594 Z M 1239.46875 529.558594 " fill-opacity="1" fill-rule="nonzero"/><path fill="#ffffff" d="M 693.128906 537.535156 C 689.605469 539.398438 685.152344 544.164062 672.203125 560.53125 C 661.636719 573.792969 655.730469 582.078125 655.730469 583.632812 C 655.730469 589.847656 665.261719 592.230469 673.859375 588.292969 C 683.082031 584.046875 713.742188 557.734375 716.953125 551.207031 C 718.820312 547.273438 718.921875 546.652344 717.574219 543.4375 C 714.675781 536.5 701.519531 533.289062 693.128906 537.535156 Z M 693.128906 537.535156 " fill-opacity="1" fill-rule="nonzero"/><path fill="#ffffff" d="M 507.078125 604.144531 C 499.621094 606.214844 478.175781 614.710938 474.964844 616.78125 C 472.167969 618.644531 469.269531 623.203125 469.269531 625.898438 C 469.269531 626.828125 471.339844 629.835938 473.929688 632.734375 C 481.699219 641.539062 482.007812 643.300781 481.386719 687.949219 C 481.078125 710.53125 480.457031 728.660156 479.730469 731.664062 C 479.109375 734.460938 476.726562 740.78125 474.449219 745.441406 C 469.890625 754.972656 469.476562 757.664062 471.859375 762.222656 C 474.65625 767.609375 476.207031 767.921875 501.277344 768.230469 C 527.382812 768.644531 532.148438 767.816406 535.046875 762.222656 C 537.429688 757.664062 536.914062 754.558594 532.976562 746.890625 C 527.589844 736.742188 527.070312 731.042969 527.484375 689.917969 C 527.902344 655.007812 527.902344 653.765625 530.28125 647.753906 C 537.429688 629.730469 555.765625 627.96875 563.226562 644.648438 C 564.882812 648.378906 565.089844 653.554688 565.609375 699.550781 C 566.125 748.238281 566.230469 750.519531 568.300781 754.972656 C 573.066406 765.332031 583.011719 770.511719 597.824219 770.511719 C 608.390625 770.511719 615.640625 768.128906 621.234375 762.742188 C 624.964844 759.21875 625.691406 757.769531 625.691406 754.558594 C 625.691406 751.449219 624.863281 750 621.132812 746.375 C 611.914062 737.363281 611.1875 733.320312 611.1875 686.5 C 611.1875 654.488281 610.980469 649.828125 609.21875 642.886719 C 605.074219 626.726562 596.0625 614.296875 584.253906 608.597656 C 576.484375 604.867188 564.363281 603.210938 555.351562 604.765625 C 545.511719 606.421875 538.777344 609.945312 532.148438 616.679688 C 528.9375 619.890625 525.828125 622.273438 525.207031 621.859375 C 524.6875 621.546875 524.171875 618.4375 524.171875 615.125 C 524.171875 604.660156 518.472656 601.035156 507.078125 604.144531 Z M 507.078125 604.144531 " fill-opacity="1" fill-rule="nonzero"/><path fill="#ffffff" d="M 813.191406 604.144531 C 805.214844 606.421875 800.550781 609.117188 793.199219 616.054688 C 785.117188 623.722656 784.183594 623.515625 784.183594 614.296875 C 784.183594 603.210938 776.726562 600.933594 759.632812 606.941406 C 754.660156 608.703125 746.789062 611.914062 742.128906 613.984375 C 735.1875 617.300781 733.527344 618.542969 731.976562 621.753906 C 729.800781 626.414062 730.421875 628.695312 735.601562 634.703125 C 742.4375 642.367188 742.75 644.855469 742.75 686.5 C 742.75 728.453125 742.230469 732.492188 735.601562 745.441406 C 730.523438 755.074219 730.109375 760.046875 733.839844 763.777344 C 737.777344 767.714844 742.851562 768.4375 765.847656 768.4375 C 788.949219 768.4375 792.679688 767.816406 795.996094 763.15625 C 798.378906 759.632812 798.167969 752.796875 795.476562 749.378906 C 791.332031 744.09375 789.363281 736.636719 788.226562 722.445312 C 787.085938 706.59375 787.1875 681.941406 788.328125 664.433594 C 789.054688 653.765625 789.675781 651.277344 792.472656 645.476562 C 796.71875 636.878906 801.796875 633.253906 809.667969 633.253906 C 816.710938 633.253906 820.027344 635.636719 824.066406 643.613281 L 827.175781 649.828125 L 827.277344 697.6875 C 827.484375 753.210938 827.589844 753.9375 836.085938 762.429688 C 842.507812 768.851562 849.34375 770.925781 861.878906 770.304688 C 876.691406 769.578125 886.742188 763.257812 886.742188 754.453125 C 886.742188 752.175781 885.394531 750 881.769531 746.0625 C 879.074219 743.265625 876.175781 739.019531 875.449219 736.742188 C 874.308594 733.734375 873.792969 722.132812 873.273438 689.710938 C 872.652344 648.792969 872.445312 646.410156 870.269531 639.46875 C 864.984375 623.410156 857.425781 613.464844 846.027344 607.871094 C 835.566406 602.796875 823.238281 601.449219 813.191406 604.144531 Z M 813.191406 604.144531 " fill-opacity="1" fill-rule="nonzero"/><path fill="#ffffff" d="M 943.714844 604.144531 C 920.613281 609.011719 907.976562 621.027344 904.246094 641.332031 C 902.589844 650.035156 904.039062 658.425781 908.496094 667.644531 C 913.984375 678.832031 924.136719 687.121094 947.859375 700.070312 C 963.914062 708.769531 970.234375 713.226562 974.066406 718.507812 C 976.761719 722.238281 977.382812 724.101562 977.691406 729.902344 C 977.902344 735.703125 977.589844 737.570312 975.621094 740.988281 C 972.304688 746.683594 966.503906 749.792969 959.046875 749.792969 C 946.304688 749.792969 940.710938 744.40625 936.980469 728.554688 C 934.910156 719.335938 931.90625 714.261719 927.140625 711.566406 C 922.480469 708.976562 913.984375 708.667969 909.632812 710.945312 C 900.105469 715.816406 896.996094 728.972656 901.96875 743.058594 C 906.113281 754.867188 918.023438 763.984375 935.222656 768.644531 C 945.683594 771.441406 968.578125 771.652344 979.453125 769.0625 C 1006.699219 762.535156 1021.617188 743.164062 1020.164062 716.332031 C 1019.75 708.667969 1019.128906 706.386719 1015.917969 699.65625 C 1009.597656 686.914062 1002.761719 681.527344 976.449219 668.578125 C 948.894531 654.902344 944.75 651.070312 944.75 639.46875 C 944.75 630.351562 949.207031 624.242188 957.183594 622.480469 C 964.640625 620.820312 972.617188 623.515625 976.140625 629.003906 C 976.96875 630.25 978.730469 634.597656 979.867188 638.742188 C 983.390625 650.449219 989.089844 655.523438 998.824219 655.523438 C 1008.355469 655.523438 1014.570312 647.753906 1014.363281 636.050781 C 1014.15625 620.925781 1004.003906 610.359375 984.632812 605.28125 C 975.933594 603.003906 952.417969 602.382812 943.714844 604.144531 Z M 943.714844 604.144531 " fill-opacity="1" fill-rule="nonzero"/><path fill="#ffffff" d="M 1060.359375 606.835938 C 1043.679688 612.535156 1035.496094 616.472656 1034.046875 619.785156 C 1031.769531 624.757812 1032.492188 627.867188 1037.050781 632.214844 C 1045.027344 639.984375 1044.613281 637.292969 1045.339844 688.15625 C 1045.855469 730.628906 1046.0625 734.152344 1048.03125 740.160156 C 1052.484375 753.523438 1059.011719 761.085938 1071.027344 766.679688 C 1077.140625 769.578125 1079.109375 769.992188 1089.261719 770.304688 C 1098.6875 770.613281 1101.691406 770.40625 1106.664062 768.644531 C 1114.433594 765.847656 1121.582031 760.566406 1127.070312 753.417969 C 1131.527344 747.617188 1134.324219 746.167969 1134.324219 749.585938 C 1134.324219 750.726562 1135.773438 754.453125 1137.535156 757.871094 C 1140.019531 762.949219 1141.78125 764.917969 1145.511719 767.195312 C 1150.070312 769.785156 1151.207031 769.992188 1161.773438 769.992188 C 1172.238281 769.992188 1173.6875 769.785156 1179.179688 766.988281 C 1190.160156 761.601562 1191.917969 754.558594 1184.152344 746.167969 C 1181.871094 743.679688 1179.28125 739.847656 1178.347656 737.671875 C 1175.242188 730.316406 1174.414062 711.773438 1174.929688 660.910156 C 1175.550781 606.007812 1175.550781 606.527344 1168.507812 604.039062 C 1163.742188 602.382812 1157.839844 603.210938 1146.859375 607.042969 C 1131.320312 612.535156 1123.238281 616.679688 1121.476562 620.097656 C 1118.992188 624.863281 1119.40625 626.828125 1123.859375 632.214844 C 1126.035156 634.910156 1128.417969 639.15625 1129.144531 641.644531 C 1131.007812 648.066406 1129.972656 708.769531 1127.902344 716.644531 C 1124.171875 730.835938 1117.542969 737.570312 1107.285156 737.570312 C 1100.96875 737.570312 1096.925781 734.875 1093.714844 728.246094 L 1091.332031 723.378906 L 1090.816406 666.917969 C 1090.296875 606.007812 1090.402344 607.25 1084.597656 604.246094 C 1079.835938 601.761719 1073.515625 602.382812 1060.359375 606.835938 Z M 1060.359375 606.835938 " fill-opacity="1" fill-rule="nonzero"/><path fill="#ffffff" d="M 1340.988281 603.316406 C 1321.410156 606.527344 1307.214844 615.332031 1300.070312 628.796875 C 1295.71875 636.980469 1294.683594 646.824219 1297.789062 652.417969 C 1303.382812 662.878906 1323.066406 663.5 1331.355469 653.554688 C 1333.21875 651.484375 1334.667969 647.652344 1335.910156 642.367188 C 1339.226562 627.246094 1342.75 623.410156 1353.316406 623.410156 C 1358.289062 623.410156 1359.53125 623.824219 1362.742188 626.621094 C 1367.300781 630.664062 1369.269531 637.1875 1370.199219 650.964844 C 1371.132812 666.917969 1371.652344 666.195312 1357.769531 668.785156 C 1340.46875 672.097656 1328.867188 675.726562 1318.300781 681.214844 C 1297.480469 691.988281 1286.394531 710.015625 1287.949219 730.628906 C 1288.984375 743.886719 1295.511719 756.113281 1305.457031 763.363281 C 1316.644531 771.441406 1337.570312 772.996094 1350.933594 766.679688 C 1358.597656 763.15625 1364.605469 758.183594 1368.957031 751.863281 C 1370.511719 749.585938 1372.167969 747.722656 1372.6875 747.722656 C 1373.101562 747.722656 1374.964844 750.726562 1376.726562 754.453125 C 1382.320312 766.160156 1391.953125 771.339844 1406.144531 770.199219 C 1415.054688 769.578125 1421.996094 766.574219 1426.449219 761.601562 C 1431.214844 756.113281 1430.699219 752.796875 1423.964844 746.375 C 1420.546875 743.058594 1417.851562 739.328125 1417.023438 736.84375 C 1415.988281 733.734375 1415.574219 722.339844 1415.46875 691.265625 C 1415.261719 653.140625 1415.054688 649.207031 1413.085938 641.746094 C 1410.1875 630.765625 1405.421875 622.273438 1398.894531 616.265625 C 1388.640625 606.941406 1378.695312 603.730469 1358.078125 603.210938 C 1350.414062 603.003906 1342.75 603.109375 1340.988281 603.316406 Z M 1370.304688 696.441406 C 1370.925781 719.957031 1367.507812 731.042969 1358.183594 736.015625 C 1349.585938 740.46875 1340.574219 738.605469 1336.117188 731.351562 C 1333.113281 726.484375 1332.492188 715.710938 1334.667969 708.148438 C 1337.671875 697.6875 1349.066406 688.15625 1361.5 685.566406 C 1370.097656 683.804688 1369.992188 683.597656 1370.304688 696.441406 Z M 1370.304688 696.441406 " fill-opacity="1" fill-rule="nonzero"/><path fill="#ffffff" d="M 392.09375 604.453125 C 371.269531 607.355469 352.210938 622.066406 341.851562 643.507812 C 333.976562 659.566406 332.007812 668.886719 332.113281 690.226562 C 332.113281 705.042969 332.527344 709.082031 334.390625 715.917969 C 340.816406 739.226562 352.519531 755.59375 368.679688 763.675781 C 378.316406 768.542969 386.808594 770.511719 398.824219 770.511719 C 425.136719 770.511719 443.992188 758.597656 452.175781 736.84375 C 455.699219 727.625 455.699219 719.542969 452.175781 716.125 C 447.515625 711.359375 443.578125 712.8125 436.84375 721.617188 C 430.109375 730.214844 423.6875 733.527344 412.1875 734.046875 C 402.246094 734.566406 396.960938 732.90625 389.503906 727.003906 C 384.738281 723.273438 378.625 711.671875 377.484375 704.523438 C 376.554688 698.515625 378.316406 696.960938 385.773438 696.960938 C 397.480469 696.960938 417.679688 692.195312 428.867188 686.914062 C 452.902344 675.414062 460.773438 652.726562 449.066406 628.902344 C 444.71875 619.992188 438.8125 614.503906 428.453125 609.425781 C 418.714844 604.660156 404.730469 602.691406 392.09375 604.453125 Z M 402.660156 623.515625 C 410.429688 626.414062 414.261719 633.769531 414.363281 645.371094 C 414.363281 664.328125 403.902344 676.65625 386.808594 678.109375 C 375.105469 679.039062 372.617188 675.101562 374.792969 658.113281 C 376.96875 641.023438 382.976562 628.488281 390.847656 624.550781 C 395.71875 622.066406 398.410156 621.859375 402.660156 623.515625 Z M 402.660156 623.515625 " fill-opacity="1" fill-rule="nonzero"/><path fill="#ffffff" d="M 683.496094 604.765625 C 677.691406 605.800781 660.703125 611.292969 653.039062 614.605469 C 642.367188 619.269531 640.296875 627.039062 647.339844 635.222656 C 654.074219 642.992188 654.179688 643.507812 654.179688 685.566406 C 654.179688 728.660156 653.660156 733.320312 647.238281 746.476562 C 642.574219 756.113281 642.472656 760.046875 646.824219 764.191406 C 650.65625 767.714844 655.421875 768.4375 679.039062 768.4375 C 702.140625 768.4375 706.90625 767.714844 710.324219 764.089844 C 714.777344 759.117188 714.15625 755.800781 707.320312 746.0625 C 705.765625 743.785156 703.695312 739.226562 702.660156 735.808594 C 701 730.109375 700.792969 724.207031 700.792969 669.199219 L 700.792969 608.703125 L 698.308594 606.734375 C 696.960938 605.699219 695.097656 604.765625 694.164062 604.765625 C 693.230469 604.765625 691.574219 604.558594 690.433594 604.351562 C 689.296875 604.144531 686.1875 604.351562 683.496094 604.765625 Z M 683.496094 604.765625 " fill-opacity="1" fill-rule="nonzero"/><path fill="#ffffff" d="M 652.105469 838.363281 C 646.410156 840.332031 643.507812 844.0625 642.679688 850.277344 L 641.953125 855.457031 L 638.019531 855.457031 C 633.667969 855.457031 631.386719 857.941406 632.632812 861.359375 C 633.5625 863.949219 635.015625 864.777344 638.949219 864.777344 L 642.265625 864.777344 L 642.265625 880.730469 C 642.265625 896.167969 642.367188 896.789062 644.542969 898.34375 C 647.546875 900.519531 649.828125 900.414062 651.898438 898.136719 C 653.347656 896.476562 653.660156 893.679688 653.660156 880.523438 L 653.660156 864.777344 L 659.152344 864.777344 C 665.054688 864.777344 667.128906 863.535156 667.128906 860.015625 C 667.128906 856.800781 665.160156 855.664062 659.359375 855.25 C 654.902344 854.9375 654.179688 854.628906 653.867188 852.660156 C 653.660156 851.414062 654.488281 849.449219 655.730469 848.203125 C 657.492188 846.441406 658.632812 846.132812 662.777344 846.753906 C 668.472656 847.480469 670.855469 845.71875 669.820312 841.574219 C 668.679688 837.121094 660.082031 835.566406 652.105469 838.363281 Z M 652.105469 838.363281 " fill-opacity="1" fill-rule="nonzero"/><path fill="#ffffff" d="M 882.285156 839.710938 C 880.730469 841.367188 880.523438 844.992188 880.523438 869.234375 L 880.523438 896.890625 L 883.011719 898.445312 C 885.496094 900.101562 890.261719 899.6875 891.503906 897.824219 C 892.023438 896.890625 892.644531 886.949219 892.851562 875.34375 C 893.058594 866.746094 902.902344 861.257812 908.078125 866.953125 C 909.738281 868.820312 910.046875 871.097656 910.359375 882.804688 C 910.667969 893.371094 911.085938 896.789062 912.328125 898.136719 C 914.398438 900.414062 916.679688 900.519531 919.683594 898.34375 C 921.859375 896.890625 921.960938 896.167969 921.960938 880.9375 C 921.960938 866.230469 921.753906 864.882812 919.578125 861.566406 C 914.8125 854.316406 904.765625 852.554688 896.476562 857.425781 L 892.957031 859.496094 L 892.957031 851 C 892.957031 841.054688 891.402344 837.84375 886.84375 837.84375 C 885.289062 837.84375 883.21875 838.675781 882.285156 839.710938 Z M 882.285156 839.710938 " fill-opacity="1" fill-rule="nonzero"/><path fill="#ffffff" d="M 1097.652344 839.710938 C 1096.097656 841.472656 1095.996094 844.683594 1096.203125 869.542969 L 1096.511719 897.410156 L 1099.414062 898.757812 C 1101.898438 900 1102.625 899.894531 1104.902344 898.550781 L 1107.390625 896.890625 L 1107.390625 868.613281 C 1107.390625 847.996094 1107.078125 840.019531 1106.144531 839.089844 C 1104.28125 837.222656 1099.621094 837.636719 1097.652344 839.710938 Z M 1097.652344 839.710938 " fill-opacity="1" fill-rule="nonzero"/><path fill="#ffffff" d="M 442.644531 856.492188 C 432.390625 861.050781 431.355469 873.480469 440.78125 878.554688 C 441.917969 879.179688 446.0625 880.421875 450 881.25 C 458.183594 883.21875 461.292969 886.015625 458.390625 889.019531 C 455.90625 891.402344 447.929688 891.195312 442.957031 888.5 C 437.878906 885.808594 434.875 886.222656 433.527344 890.054688 C 432.699219 892.644531 432.90625 893.265625 435.394531 895.441406 C 439.019531 898.550781 444.40625 900 452.589844 900 C 464.089844 900 471.339844 894.820312 471.339844 886.636719 C 471.339844 879.074219 467.609375 875.757812 455.386719 872.546875 C 446.269531 870.0625 443.578125 867.78125 446.890625 865.191406 C 449.585938 863.226562 454.144531 863.328125 460.046875 865.402344 C 465.746094 867.472656 467.921875 866.953125 468.855469 863.121094 C 469.476562 860.945312 469.0625 859.910156 467.300781 858.460938 C 462.015625 854.109375 449.894531 853.175781 442.644531 856.492188 Z M 442.644531 856.492188 " fill-opacity="1" fill-rule="nonzero"/><path fill="#ffffff" d="M 503.660156 856.078125 C 501.484375 857.527344 501.382812 858.253906 501.382812 872.859375 C 501.382812 890.46875 502.832031 895.441406 508.734375 898.445312 C 513.914062 901.140625 523.859375 900.207031 528.730469 896.582031 C 531.421875 894.507812 532.457031 894.09375 532.457031 895.234375 C 532.457031 897.515625 535.359375 900 538.15625 900 C 543.128906 900 543.855469 896.996094 543.855469 877.003906 C 543.855469 859.910156 543.644531 858.355469 541.78125 856.492188 C 540.640625 855.351562 538.777344 854.417969 537.636719 854.417969 C 536.5 854.417969 534.632812 855.351562 533.496094 856.492188 C 531.628906 858.355469 531.421875 859.910156 531.421875 870.164062 C 531.421875 877.417969 530.90625 882.90625 530.074219 884.460938 C 527.382812 889.953125 517.230469 892.128906 514.953125 887.671875 C 514.433594 886.738281 513.8125 879.800781 513.605469 872.132812 C 513.191406 859.183594 512.984375 858.148438 510.808594 856.285156 C 507.90625 854.003906 506.664062 853.902344 503.660156 856.078125 Z M 503.660156 856.078125 " fill-opacity="1" fill-rule="nonzero"/><path fill="#ffffff" d="M 578.039062 855.144531 C 574.308594 856.492188 573.894531 858.667969 573.894531 877.417969 C 573.894531 894.507812 574 895.960938 575.96875 897.929688 C 578.453125 900.414062 581.042969 900.519531 583.839844 898.550781 C 585.496094 897.203125 585.910156 895.339844 586.324219 884.046875 C 586.84375 871.410156 586.949219 871.097656 589.953125 867.886719 C 592.957031 864.675781 593.265625 864.675781 599.894531 865.296875 C 606.527344 865.917969 606.628906 865.917969 607.871094 863.226562 C 609.011719 860.84375 608.910156 859.910156 607.5625 857.941406 C 604.558594 853.382812 595.753906 853.488281 588.914062 858.046875 C 585.394531 860.429688 585.289062 860.53125 585.289062 858.460938 C 585.289062 857.214844 584.253906 856.078125 582.597656 855.457031 C 581.144531 854.835938 579.902344 854.417969 579.800781 854.523438 C 579.695312 854.523438 578.867188 854.835938 578.039062 855.144531 Z M 578.039062 855.144531 " fill-opacity="1" fill-rule="nonzero"/><path fill="#ffffff" d="M 755.492188 856.386719 C 747.722656 860.015625 744.613281 868.820312 749.066406 874.515625 C 751.863281 878.140625 755.386719 879.800781 762.949219 881.351562 C 768.75 882.492188 772.789062 884.667969 772.789062 886.636719 C 772.789062 890.882812 762.429688 892.023438 755.90625 888.605469 C 749.792969 885.289062 745.855469 886.324219 745.855469 891.195312 C 745.855469 896.167969 753.9375 899.894531 764.8125 900 C 768.644531 900 773.308594 899.378906 775.171875 898.550781 C 782.632812 895.441406 785.945312 887.878906 782.734375 881.25 C 780.558594 876.589844 778.074219 875.136719 768.230469 872.546875 C 759.117188 870.269531 756.320312 867.78125 759.738281 865.191406 C 762.429688 863.226562 767.09375 863.328125 773.101562 865.503906 C 779.003906 867.679688 781.59375 866.644531 781.59375 862.085938 C 781.59375 857.839844 776.621094 855.25 767.195312 854.730469 C 761.394531 854.417969 758.910156 854.730469 755.492188 856.386719 Z M 755.492188 856.386719 " fill-opacity="1" fill-rule="nonzero"/><path fill="#ffffff" d="M 826.65625 855.558594 C 821.375 857.214844 817.644531 860.222656 814.746094 865.296875 C 809.566406 874 810.289062 884.667969 816.503906 892.128906 C 820.855469 897.410156 826.65625 900 834.425781 900 C 844.683594 900 854.003906 894.300781 851.414062 889.539062 C 849.449219 885.808594 847.167969 885.496094 841.679688 888.191406 C 835.566406 891.089844 834.738281 891.195312 830.179688 889.019531 C 823.964844 886.015625 821.683594 877.832031 825.105469 870.476562 C 827.796875 864.882812 836.085938 862.914062 842.195312 866.4375 C 846.027344 868.714844 850.277344 867.679688 851.105469 864.261719 C 852.347656 859.289062 846.652344 855.664062 836.707031 854.9375 C 833.183594 854.730469 828.625 854.9375 826.65625 855.558594 Z M 826.65625 855.558594 " fill-opacity="1" fill-rule="nonzero"/><path fill="#ffffff" d="M 965.054688 855.871094 C 955.316406 859.496094 950.96875 866.230469 950.96875 877.417969 C 950.96875 881.351562 951.589844 886.015625 952.417969 887.878906 C 954.179688 891.917969 959.773438 897.410156 963.707031 898.859375 C 968.164062 900.519531 978.523438 900.207031 982.355469 898.34375 C 993.230469 892.851562 998.101562 880.523438 993.957031 868.820312 C 992.195312 863.847656 988.257812 859.183594 983.910156 856.90625 C 979.558594 854.628906 969.820312 854.109375 965.054688 855.871094 Z M 980.074219 867.472656 C 983.289062 870.890625 984.117188 880.316406 981.527344 884.980469 C 976.554688 894.40625 964.539062 891.296875 962.878906 880.214844 C 961.015625 867.78125 972.410156 859.289062 980.074219 867.472656 Z M 980.074219 867.472656 " fill-opacity="1" fill-rule="nonzero"/><path fill="#ffffff" d="M 1040.574219 854.835938 C 1040.054688 855.042969 1038.292969 855.558594 1036.636719 855.871094 C 1032.390625 856.800781 1025.96875 863.226562 1023.894531 868.40625 C 1021.203125 875.449219 1022.238281 885.289062 1026.175781 890.882812 C 1030.730469 897.515625 1036.636719 900.207031 1045.960938 899.792969 C 1052.277344 899.480469 1054.039062 898.964844 1057.769531 896.375 C 1064.710938 891.503906 1066.472656 887.671875 1066.472656 877.003906 C 1066.472656 868.714844 1066.265625 867.78125 1063.363281 863.640625 C 1061.707031 861.257812 1058.597656 858.460938 1056.628906 857.425781 C 1053.210938 855.664062 1042.851562 854.003906 1040.574219 854.835938 Z M 1051.863281 867.160156 C 1056.628906 871.925781 1056.113281 883.011719 1050.933594 888.191406 C 1047.304688 891.816406 1041.816406 891.609375 1037.878906 887.671875 C 1035.1875 884.875 1034.875 883.941406 1034.875 877.933594 C 1034.875 872.132812 1035.289062 870.683594 1037.570312 867.988281 C 1039.847656 865.296875 1040.988281 864.777344 1044.820312 864.777344 C 1048.34375 864.777344 1050.105469 865.402344 1051.863281 867.160156 Z M 1051.863281 867.160156 " fill-opacity="1" fill-rule="nonzero"/><path fill="#ffffff" d="M 267.886719 867.988281 C 264.261719 870.789062 264.15625 876.898438 267.574219 880.109375 C 269.957031 882.390625 270.371094 882.390625 307.355469 882.390625 C 342.472656 882.390625 344.855469 882.285156 347.132812 880.421875 C 349 878.972656 349.621094 877.417969 349.621094 874.101562 C 349.621094 870.789062 349 869.234375 347.132812 867.78125 C 344.855469 865.917969 342.472656 865.816406 307.664062 865.816406 C 271.824219 865.816406 270.582031 865.917969 267.886719 867.988281 Z M 267.886719 867.988281 " fill-opacity="1" fill-rule="nonzero"/><path fill="#ffffff" d="M 1194.925781 867.058594 C 1191.917969 868.714844 1191.296875 869.957031 1191.296875 874.308594 C 1191.296875 876.898438 1192.023438 878.972656 1193.371094 880.316406 C 1195.339844 882.285156 1196.789062 882.390625 1232.734375 882.390625 L 1270.132812 882.390625 L 1272.617188 879.800781 C 1274.273438 878.246094 1275.207031 876.070312 1275.207031 874.101562 C 1275.207031 872.132812 1274.273438 869.957031 1272.617188 868.40625 L 1270.132812 865.816406 L 1233.5625 865.816406 C 1208.289062 865.917969 1196.375 866.230469 1194.925781 867.058594 Z M 1194.925781 867.058594 " fill-opacity="1" fill-rule="nonzero"/></svg>